<?xml version="1.0" encoding="UTF-8"?><svg id="Layer_1" xmlns="http://www.w3.org/2000/svg" width="1058.9574" height="481.0213" viewBox="0 0 1058.9574 481.0213"><defs><style>.cls-1{fill:none;}.cls-2{fill:#231f20;}</style></defs><path class="cls-1" d="M234.0786,245.8915h29.1399c-3.4221-4.5932-7.3144-8.5331-11.6985-11.7942-9.0092-6.6994-19.6993-10.05-32.0629-10.05-13.0741,0-24.2911,3.3506-33.6529,10.05-9.3654,6.7022-16.5194,16.2179-21.4637,28.5462-4.9462,12.332-7.4193,27.1232-7.4193,44.3699,0,17.1066,2.4731,31.8607,7.4193,44.2632,4.9443,12.4016,12.0983,21.9544,21.4637,28.6529,9.3617,6.7022,20.5787,10.05,33.6529,10.05,5.1725,0,10.0352-.6216,14.6214-1.7943"/><rect class="cls-2" x="760.0053" y="142.7917" width="51.9366" height="85.532"/><path class="cls-2" d="M958.2102,128.2509c0-7.6975,2.3859-13.8988,7.1558-18.6029,4.7681-4.7041,14.0426-7.0565,27.8217-7.0565,5.3005,0,11.4805,.3942,18.5491,1.1762,7.063,.7848,13.2485,1.8172,18.5491,3.1002l21.1984-84.6767c-8.4805-1.7106-21.5101-3.705-39.0851-5.987-17.5806-2.2792-35.6399-3.4221-54.1889-3.4221-29.677,0-55.4709,4.4211-77.3744,13.2578-21.9053,8.8404-38.8644,22.1687-50.8754,39.9868-12.0148,17.8209-18.0185,40.2734-18.0185,67.3559v9.409h146.2682v-14.5407Z"/><rect class="cls-2" x="958.2102" y="142.7917" width="74.1944" height="85.532"/><rect class="cls-2" x="811.942" y="228.3237" width="146.2682" height="17.5679"/><rect class="cls-2" x="811.942" y="142.7917" width="146.2682" height="85.532"/><path class="cls-2" d="M418.0461,245.8915c-3.7187-9.3319-8.3376-18.224-13.898-26.6559-16.7847-25.4451-40.8977-45.2586-72.3389-59.4449-31.447-14.1827-69.2522-21.2754-113.4115-21.2754s-81.9698,7.0927-113.411,21.2754c-31.447,14.1863-55.5604,33.9998-72.3393,59.4449-16.7847,25.4461-25.1742,54.9914-25.1742,88.6331s8.3895,63.187,25.1742,88.6331c16.7789,25.4451,40.8924,45.2613,72.3393,59.444,31.4412,14.1863,69.2465,21.2763,113.411,21.2763,5.3211,0,10.5446-.1086,15.6807-.3143,37.4919-1.5028,70.0731-8.485,97.7308-20.962,31.4412-14.1827,55.5541-33.9989,72.3389-59.444,16.7814-25.4461,25.1728-54.9886,25.1728-88.6331,0-22.4942-3.773-43.1467-11.2747-61.9772Zm-145.5928,105.3851c-4.9481,12.4016-11.9241,21.9544-20.9331,28.6529-5.2394,3.8981-11.0656,6.6258-17.4417,8.2557-4.5862,1.1727-9.4488,1.7943-14.6214,1.7943-13.0737,0-24.2908-3.3479-33.6526-10.0501-9.3656-6.6985-16.5194-16.2513-21.4637-28.6529-4.9462-12.4025-7.4196-27.1566-7.4196-44.2632,0-17.2467,2.4733-32.0379,7.4196-44.3699,4.9443-12.3283,12.0981-21.8441,21.4637-28.5463,9.3618-6.6994,20.5788-10.05,33.6526-10.05,12.3638,0,23.0536,3.3506,32.0631,10.05,4.3839,3.2611,8.2765,7.201,11.6982,11.7942,3.6105,4.8467,6.6943,10.4224,9.2349,16.752,4.9424,12.332,7.4191,27.1232,7.4191,44.3699,0,17.1066-2.4767,31.8607-7.4191,44.2632Z"/><path class="cls-2" d="M658.2619,128.2509c0-7.6975,2.3859-13.8988,7.1557-18.6029,4.7684-4.704,14.0427-7.0566,27.822-7.0566,5.3004,0,11.4804,.3943,18.5491,1.1763,7.0629,.7848,13.2482,1.8172,18.5486,3.1002l21.1989-84.6767c-8.4808-1.7106-21.5103-3.705-39.0852-5.987-17.5806-2.2792-35.64-3.4221-54.1891-3.4221-29.6768,0-55.471,4.4211-77.3745,13.2578-21.9049,8.8404-38.8641,22.1687-50.8752,39.9868-12.0149,17.8208-18.0185,40.2734-18.0185,67.3558v9.4091h-51.9369v85.532h51.9369v242.9115h146.2681V228.3236h74.1946v-85.532h-74.1946v-14.5408Z"/><rect class="cls-2" x="811.942" y="245.8915" width="146.2682" height="225.3436"/></svg>